DBRep_DrawableShape

CASCADE Topology V1, (c) Matra-Datavision
Locations 1
1
              1               0               0               0 
              0               1               0               0 
              0               0               1               0 
Curve2ds 6
1 0 10 1 0 
2 0 0 1 0 -0 1 2
1 6.2831853071795862 -0 0 1 
1 0 -0 0 1 
1 0 0 1 0 
2 0 0 1 0 -0 1 2
Curves 3
2 0 0 10 0 0 1 1 0 -0 -0 1 0 2
1 2 -4.8985871965894128e-16 0 0 0 1 
2 0 0 0 0 0 1 1 0 -0 -0 1 0 2
Polygon3D 0
PolygonOnTriangulations 6
51 1 3 4 5 6 7 8 9 10 11 12 13 14 15 16 17 18 19 20 21 22 23 24 25 26 27 28 29 30 31 32 33 34 35 36 37 38 39 40 41 42 43 44 45 46 47 48 49 50 51 2 
p 0.0310985626705653 1 0 0.125663706143592 0.251327412287183 0.376991118430775 0.502654824574367 0.628318530717959 0.75398223686155 0.879645943005142 1.00530964914873 1.13097335529233 1.25663706143592 1.38230076757951 1.5079644737231 1.63362817986669 1.75929188601028 1.88495559215388 2.01061929829747 2.13628300444106 2.26194671058465 2.38761041672824 2.51327412287183 2.63893782901543 2.76460153515902 2.89026524130261 3.0159289474462 3.14159265358979 3.26725635973338 3.39292006587698 3.51858377202057 3.64424747816416 3.76991118430775 3.89557489045134 4.02123859659493 4.14690230273853 4.27256600888212 4.39822971502571 4.5238934211693 4.64955712731289 4.77522083345649 4.90088453960008 5.02654824574367 5.15221195188726 5.27787565803085 5.40353936417445 5.52920307031804 5.65486677646163 5.78053048260522 5.90619418874881 6.03185789489241 6.157521601036 6.28318530717959 
51 1 2 3 4 5 6 7 8 9 10 11 12 13 14 15 16 17 18 19 20 21 22 23 24 25 26 27 28 29 30 31 32 33 34 35 36 37 38 39 40 41 42 43 44 45 46 47 48 49 50 1 
p 0.0310985626705653 1 0 0.125663706143592 0.251327412287183 0.376991118430775 0.502654824574367 0.628318530717959 0.75398223686155 0.879645943005142 1.00530964914873 1.13097335529233 1.25663706143592 1.38230076757951 1.5079644737231 1.63362817986669 1.75929188601028 1.88495559215388 2.01061929829747 2.13628300444106 2.26194671058465 2.38761041672824 2.51327412287183 2.63893782901543 2.76460153515902 2.89026524130261 3.0159289474462 3.14159265358979 3.26725635973338 3.39292006587698 3.51858377202057 3.64424747816416 3.76991118430775 3.89557489045134 4.02123859659493 4.14690230273853 4.27256600888212 4.39822971502571 4.5238934211693 4.64955712731289 4.77522083345649 4.90088453960008 5.02654824574367 5.15221195188726 5.27787565803085 5.40353936417445 5.52920307031804 5.65486677646163 5.78053048260522 5.90619418874881 6.03185789489241 6.157521601036 6.28318530717959 
2 52 2 
p 0.0310985626705653 1 0 10 
2 53 1 
p 0.0310985626705653 1 0 10 
51 53 54 55 56 57 58 59 60 61 62 63 64 65 66 67 68 69 70 71 72 73 74 75 76 77 78 79 80 81 82 83 84 85 86 87 88 89 90 91 92 93 94 95 96 97 98 99 100 101 102 52 
p 0.0310985626705653 1 0 0.125663706143592 0.251327412287183 0.376991118430775 0.502654824574367 0.628318530717959 0.75398223686155 0.879645943005142 1.00530964914873 1.13097335529233 1.25663706143592 1.38230076757951 1.5079644737231 1.63362817986669 1.75929188601028 1.88495559215388 2.01061929829747 2.13628300444106 2.26194671058465 2.38761041672824 2.51327412287183 2.63893782901543 2.76460153515902 2.89026524130261 3.0159289474462 3.14159265358979 3.26725635973338 3.39292006587698 3.51858377202057 3.64424747816416 3.76991118430775 3.89557489045134 4.02123859659493 4.14690230273853 4.27256600888212 4.39822971502571 4.5238934211693 4.64955712731289 4.77522083345649 4.90088453960008 5.02654824574367 5.15221195188726 5.27787565803085 5.40353936417445 5.52920307031804 5.65486677646163 5.78053048260522 5.90619418874881 6.03185789489241 6.157521601036 6.28318530717959 
51 1 2 3 4 5 6 7 8 9 10 11 12 13 14 15 16 17 18 19 20 21 22 23 24 25 26 27 28 29 30 31 32 33 34 35 36 37 38 39 40 41 42 43 44 45 46 47 48 49 50 1 
p 0.0310985626705653 1 0 0.125663706143592 0.251327412287183 0.376991118430775 0.502654824574367 0.628318530717959 0.75398223686155 0.879645943005142 1.00530964914873 1.13097335529233 1.25663706143592 1.38230076757951 1.5079644737231 1.63362817986669 1.75929188601028 1.88495559215388 2.01061929829747 2.13628300444106 2.26194671058465 2.38761041672824 2.51327412287183 2.63893782901543 2.76460153515902 2.89026524130261 3.0159289474462 3.14159265358979 3.26725635973338 3.39292006587698 3.51858377202057 3.64424747816416 3.76991118430775 3.89557489045134 4.02123859659493 4.14690230273853 4.27256600888212 4.39822971502571 4.5238934211693 4.64955712731289 4.77522083345649 4.90088453960008 5.02654824574367 5.15221195188726 5.27787565803085 5.40353936417445 5.52920307031804 5.65486677646163 5.78053048260522 5.90619418874881 6.03185789489241 6.157521601036 6.28318530717959 
Surfaces 3
2 0 0 0 0 0 1 1 0 -0 -0 1 0 2
1 0 0 10 0 0 1 1 0 -0 -0 1 0 
1 0 0 0 0 0 1 1 0 -0 -0 1 0 
Triangulations 3
102 100 1 0.003946543143457
2 -4.89858719658941e-16 10 2 -4.89858719658941e-16 10 1.98422940262896 0.250666467128609 10 1.93716632225726 0.49737977432971 10 1.8595529717765 0.736249105369356 10 1.75261336008773 0.963507348203431 10 1.61803398874989 1.17557050458495 10 1.45793725484282 1.36909421185738 10 1.27484797949738 1.54102648555158 10 1.07165358995799 1.68865585100403 10 0.851558583130145 1.80965410493204 10 0.618033988749895 1.90211303259031 10 0.374762629171449 1.96457450145738 10 0.125581039058627 1.99605345685654 10 -0.125581039058626 1.99605345685654 10 -0.374762629171449 1.96457450145738 10 -0.618033988749894 1.90211303259031 10 -0.851558583130145 1.80965410493204 10 -1.07165358995799 1.68865585100403 10 -1.27484797949738 1.54102648555158 10 -1.45793725484282 1.36909421185738 10 -1.61803398874989 1.17557050458495 10 -1.75261336008773 0.963507348203432 10 -1.8595529717765 0.736249105369357 10 -1.93716632225726 0.49737977432971 10 -1.98422940262896 0.25066646712861 10 -2 2.02128619922972e-15 10 -1.98422940262896 -0.250666467128607 10 -1.93716632225726 -0.497379774329708 10 -1.8595529717765 -0.736249105369354 10 -1.75261336008773 -0.963507348203428 10 -1.6180339887499 -1.17557050458494 10 -1.45793725484282 -1.36909421185738 10 -1.27484797949738 -1.54102648555158 10 -1.07165358995799 -1.68865585100403 10 -0.851558583130146 -1.80965410493204 10 -0.618033988749895 -1.90211303259031 10 -0.374762629171449 -1.96457450145738 10 -0.125581039058626 -1.99605345685654 10 0.125581039058627 -1.99605345685654 10 0.37476262917145 -1.96457450145738 10 0.618033988749896 -1.90211303259031 10 0.851558583130147 -1.80965410493204 10 1.071653589958 -1.68865585100403 10 1.27484797949738 -1.54102648555158 10 1.45793725484282 -1.36909421185738 10 1.6180339887499 -1.17557050458494 10 1.75261336008773 -0.963507348203428 10 1.8595529717765 -0.736249105369352 10 1.93716632225726 -0.497379774329706 10 1.98422940262896 -0.250666467128608 10 2 -4.89858719658941e-16 0 2 -4.89858719658941e-16 0 1.98422940262896 0.250666467128609 0 1.93716632225726 0.49737977432971 0 1.8595529717765 0.736249105369356 0 1.75261336008773 0.963507348203431 0 1.61803398874989 1.17557050458495 0 1.45793725484282 1.36909421185738 0 1.27484797949738 1.54102648555158 0 1.07165358995799 1.68865585100403 0 0.851558583130145 1.80965410493204 0 0.618033988749895 1.90211303259031 0 0.374762629171449 1.96457450145738 0 0.125581039058627 1.99605345685654 0 -0.125581039058626 1.99605345685654 0 -0.374762629171449 1.96457450145738 0 -0.618033988749894 1.90211303259031 0 -0.851558583130145 1.80965410493204 0 -1.07165358995799 1.68865585100403 0 -1.27484797949738 1.54102648555158 0 -1.45793725484282 1.36909421185738 0 -1.61803398874989 1.17557050458495 0 -1.75261336008773 0.963507348203432 0 -1.8595529717765 0.736249105369357 0 -1.93716632225726 0.49737977432971 0 -1.98422940262896 0.25066646712861 0 -2 2.02128619922972e-15 0 -1.98422940262896 -0.250666467128607 0 -1.93716632225726 -0.497379774329708 0 -1.8595529717765 -0.736249105369354 0 -1.75261336008773 -0.963507348203428 0 -1.6180339887499 -1.17557050458494 0 -1.45793725484282 -1.36909421185738 0 -1.27484797949738 -1.54102648555158 0 -1.07165358995799 -1.68865585100403 0 -0.851558583130146 -1.80965410493204 0 -0.618033988749895 -1.90211303259031 0 -0.374762629171449 -1.96457450145738 0 -0.125581039058626 -1.99605345685654 0 0.125581039058627 -1.99605345685654 0 0.37476262917145 -1.96457450145738 0 0.618033988749896 -1.90211303259031 0 0.851558583130147 -1.80965410493204 0 1.071653589958 -1.68865585100403 0 1.27484797949738 -1.54102648555158 0 1.45793725484282 -1.36909421185738 0 1.6180339887499 -1.17557050458494 0 1.75261336008773 -0.963507348203428 0 1.8595529717765 -0.736249105369352 0 1.93716632225726 -0.497379774329706 0 1.98422940262896 -0.250666467128608 0 0 10 6.28318530717959 10 0.125663706143592 10 0.251327412287183 10 0.376991118430775 10 0.502654824574367 10 0.628318530717959 10 0.75398223686155 10 0.879645943005142 10 1.00530964914873 10 1.13097335529233 10 1.25663706143592 10 1.38230076757951 10 1.5079644737231 10 1.63362817986669 10 1.75929188601028 10 1.88495559215388 10 2.01061929829747 10 2.13628300444106 10 2.26194671058465 10 2.38761041672824 10 2.51327412287183 10 2.63893782901543 10 2.76460153515902 10 2.89026524130261 10 3.0159289474462 10 3.14159265358979 10 3.26725635973338 10 3.39292006587698 10 3.51858377202057 10 3.64424747816416 10 3.76991118430775 10 3.89557489045134 10 4.02123859659493 10 4.14690230273853 10 4.27256600888212 10 4.39822971502571 10 4.5238934211693 10 4.64955712731289 10 4.77522083345649 10 4.90088453960008 10 5.02654824574367 10 5.15221195188726 10 5.27787565803085 10 5.40353936417445 10 5.52920307031804 10 5.65486677646163 10 5.78053048260522 10 5.90619418874881 10 6.03185789489241 10 6.157521601036 10 6.28318530717959 0 0 0 0.125663706143592 0 0.251327412287183 0 0.376991118430775 0 0.502654824574367 0 0.628318530717959 0 0.75398223686155 0 0.879645943005142 0 1.00530964914873 0 1.13097335529233 0 1.25663706143592 0 1.38230076757951 0 1.5079644737231 0 1.63362817986669 0 1.75929188601028 0 1.88495559215388 0 2.01061929829747 0 2.13628300444106 0 2.26194671058465 0 2.38761041672824 0 2.51327412287183 0 2.63893782901543 0 2.76460153515902 0 2.89026524130261 0 3.0159289474462 0 3.14159265358979 0 3.26725635973338 0 3.39292006587698 0 3.51858377202057 0 3.64424747816416 0 3.76991118430775 0 3.89557489045134 0 4.02123859659493 0 4.14690230273853 0 4.27256600888212 0 4.39822971502571 0 4.5238934211693 0 4.64955712731289 0 4.77522083345649 0 4.90088453960008 0 5.02654824574367 0 5.15221195188726 0 5.27787565803085 0 5.40353936417445 0 5.52920307031804 0 5.65486677646163 0 5.78053048260522 0 5.90619418874881 0 6.03185789489241 0 6.157521601036 0 3 1 53 3 53 54 4 3 54 4 54 55 5 4 55 5 55 56 6 5 56 6 56 57 7 6 57 7 57 58 8 7 58 8 58 59 9 8 59 9 59 60 10 9 60 10 60 61 11 10 61 11 61 62 12 11 62 12 62 63 13 12 63 13 63 64 14 13 64 14 64 65 15 14 65 15 65 66 16 15 66 16 66 67 17 16 67 17 67 68 18 68 69 18 17 68 19 69 70 19 18 69 20 70 71 20 19 70 21 71 72 21 20 71 22 72 73 22 21 72 23 73 74 23 22 73 24 74 75 24 23 74 25 75 76 25 24 75 26 25 76 26 76 77 27 26 77 27 77 78 28 27 78 28 78 79 29 28 79 29 79 80 30 29 80 30 80 81 31 30 81 31 81 82 32 31 82 32 82 83 33 32 83 33 83 84 34 33 84 34 84 85 35 34 85 35 85 86 36 35 86 36 86 87 37 36 87 37 87 88 38 37 88 38 88 89 39 38 89 39 89 90 40 39 90 40 90 91 41 40 91 41 91 92 42 41 92 42 92 93 43 42 93 43 93 94 44 43 94 44 94 95 45 44 95 45 95 96 46 45 96 46 96 97 47 46 97 47 97 98 48 47 98 48 98 99 49 48 99 49 99 100 50 100 101 50 49 100 51 50 101 51 101 102 2 102 52 2 51 102 
50 48 1 2.22044604925031e-16
2 -4.89858719658941e-16 10 1.98422940262896 0.250666467128609 10 1.93716632225726 0.49737977432971 10 1.8595529717765 0.736249105369356 10 1.75261336008773 0.963507348203431 10 1.61803398874989 1.17557050458495 10 1.45793725484282 1.36909421185738 10 1.27484797949738 1.54102648555158 10 1.07165358995799 1.68865585100403 10 0.851558583130145 1.80965410493204 10 0.618033988749895 1.90211303259031 10 0.374762629171449 1.96457450145738 10 0.125581039058627 1.99605345685654 10 -0.125581039058626 1.99605345685654 10 -0.374762629171449 1.96457450145738 10 -0.618033988749894 1.90211303259031 10 -0.851558583130145 1.80965410493204 10 -1.07165358995799 1.68865585100403 10 -1.27484797949738 1.54102648555158 10 -1.45793725484282 1.36909421185738 10 -1.61803398874989 1.17557050458495 10 -1.75261336008773 0.963507348203432 10 -1.8595529717765 0.736249105369357 10 -1.93716632225726 0.49737977432971 10 -1.98422940262896 0.25066646712861 10 -2 2.02128619922972e-15 10 -1.98422940262896 -0.250666467128607 10 -1.93716632225726 -0.497379774329708 10 -1.8595529717765 -0.736249105369354 10 -1.75261336008773 -0.963507348203428 10 -1.6180339887499 -1.17557050458494 10 -1.45793725484282 -1.36909421185738 10 -1.27484797949738 -1.54102648555158 10 -1.07165358995799 -1.68865585100403 10 -0.851558583130146 -1.80965410493204 10 -0.618033988749895 -1.90211303259031 10 -0.374762629171449 -1.96457450145738 10 -0.125581039058626 -1.99605345685654 10 0.125581039058627 -1.99605345685654 10 0.37476262917145 -1.96457450145738 10 0.618033988749896 -1.90211303259031 10 0.851558583130147 -1.80965410493204 10 1.071653589958 -1.68865585100403 10 1.27484797949738 -1.54102648555158 10 1.45793725484282 -1.36909421185738 10 1.6180339887499 -1.17557050458494 10 1.75261336008773 -0.963507348203428 10 1.8595529717765 -0.736249105369352 10 1.93716632225726 -0.497379774329706 10 1.98422940262896 -0.250666467128608 10 2 0 1.98422940262896 0.250666467128609 1.93716632225726 0.49737977432971 1.8595529717765 0.736249105369356 1.75261336008773 0.963507348203431 1.61803398874989 1.17557050458495 1.45793725484282 1.36909421185738 1.27484797949738 1.54102648555158 1.07165358995799 1.68865585100403 0.851558583130145 1.80965410493204 0.618033988749895 1.90211303259031 0.37476262917145 1.96457450145738 0.125581039058627 1.99605345685654 -0.125581039058626 1.99605345685654 -0.374762629171449 1.96457450145738 -0.618033988749894 1.90211303259031 -0.851558583130145 1.80965410493204 -1.07165358995799 1.68865585100403 -1.27484797949738 1.54102648555158 -1.45793725484282 1.36909421185738 -1.61803398874989 1.17557050458495 -1.75261336008773 0.963507348203432 -1.8595529717765 0.736249105369357 -1.93716632225726 0.497379774329711 -1.98422940262896 0.25066646712861 -2 1.99840144432528e-15 -1.98422940262896 -0.250666467128607 -1.93716632225726 -0.497379774329708 -1.8595529717765 -0.736249105369354 -1.75261336008773 -0.963507348203428 -1.6180339887499 -1.17557050458494 -1.45793725484282 -1.36909421185738 -1.27484797949738 -1.54102648555158 -1.07165358995799 -1.68865585100403 -0.851558583130146 -1.80965410493204 -0.618033988749895 -1.90211303259031 -0.374762629171449 -1.96457450145738 -0.125581039058626 -1.99605345685654 0.125581039058627 -1.99605345685654 0.37476262917145 -1.96457450145738 0.618033988749896 -1.90211303259031 0.851558583130147 -1.80965410493204 1.07165358995799 -1.68865585100403 1.27484797949738 -1.54102648555158 1.45793725484282 -1.36909421185738 1.6180339887499 -1.17557050458494 1.75261336008773 -0.963507348203428 1.8595529717765 -0.736249105369352 1.93716632225726 -0.497379774329705 1.98422940262896 -0.250666467128608 7 1 2 7 2 3 7 3 4 7 4 5 7 5 6 7 8 9 7 9 10 7 10 11 7 11 12 7 12 13 7 13 14 7 14 15 7 15 16 7 16 17 7 17 18 7 18 19 7 19 20 7 20 21 7 21 22 7 22 23 7 23 24 7 24 25 7 25 26 7 26 27 7 27 28 7 28 29 7 29 30 7 30 31 7 31 32 7 32 33 7 33 34 7 34 35 7 35 36 7 36 37 7 37 38 7 38 39 7 39 40 7 40 41 7 41 42 7 42 43 7 43 44 7 44 45 7 45 46 7 46 47 7 47 48 7 48 49 7 49 50 7 50 1 
50 48 1 2.22044604925031e-16
2 -4.89858719658941e-16 0 1.98422940262896 0.250666467128609 0 1.93716632225726 0.49737977432971 0 1.8595529717765 0.736249105369356 0 1.75261336008773 0.963507348203431 0 1.61803398874989 1.17557050458495 0 1.45793725484282 1.36909421185738 0 1.27484797949738 1.54102648555158 0 1.07165358995799 1.68865585100403 0 0.851558583130145 1.80965410493204 0 0.618033988749895 1.90211303259031 0 0.374762629171449 1.96457450145738 0 0.125581039058627 1.99605345685654 0 -0.125581039058626 1.99605345685654 0 -0.374762629171449 1.96457450145738 0 -0.618033988749894 1.90211303259031 0 -0.851558583130145 1.80965410493204 0 -1.07165358995799 1.68865585100403 0 -1.27484797949738 1.54102648555158 0 -1.45793725484282 1.36909421185738 0 -1.61803398874989 1.17557050458495 0 -1.75261336008773 0.963507348203432 0 -1.8595529717765 0.736249105369357 0 -1.93716632225726 0.49737977432971 0 -1.98422940262896 0.25066646712861 0 -2 2.02128619922972e-15 0 -1.98422940262896 -0.250666467128607 0 -1.93716632225726 -0.497379774329708 0 -1.8595529717765 -0.736249105369354 0 -1.75261336008773 -0.963507348203428 0 -1.6180339887499 -1.17557050458494 0 -1.45793725484282 -1.36909421185738 0 -1.27484797949738 -1.54102648555158 0 -1.07165358995799 -1.68865585100403 0 -0.851558583130146 -1.80965410493204 0 -0.618033988749895 -1.90211303259031 0 -0.374762629171449 -1.96457450145738 0 -0.125581039058626 -1.99605345685654 0 0.125581039058627 -1.99605345685654 0 0.37476262917145 -1.96457450145738 0 0.618033988749896 -1.90211303259031 0 0.851558583130147 -1.80965410493204 0 1.071653589958 -1.68865585100403 0 1.27484797949738 -1.54102648555158 0 1.45793725484282 -1.36909421185738 0 1.6180339887499 -1.17557050458494 0 1.75261336008773 -0.963507348203428 0 1.8595529717765 -0.736249105369352 0 1.93716632225726 -0.497379774329706 0 1.98422940262896 -0.250666467128608 0 2 -4.44089209850063e-16 1.98422940262896 0.250666467128609 1.93716632225726 0.49737977432971 1.8595529717765 0.736249105369356 1.75261336008773 0.963507348203431 1.61803398874989 1.17557050458495 1.45793725484282 1.36909421185738 1.27484797949738 1.54102648555158 1.07165358995799 1.68865585100403 0.851558583130145 1.80965410493204 0.618033988749895 1.90211303259031 0.37476262917145 1.96457450145738 0.125581039058627 1.99605345685654 -0.125581039058626 1.99605345685654 -0.374762629171449 1.96457450145738 -0.618033988749894 1.90211303259031 -0.851558583130145 1.80965410493204 -1.07165358995799 1.68865585100403 -1.27484797949738 1.54102648555158 -1.45793725484282 1.36909421185738 -1.61803398874989 1.17557050458495 -1.75261336008773 0.963507348203432 -1.8595529717765 0.736249105369357 -1.93716632225726 0.497379774329711 -1.98422940262896 0.25066646712861 -2 1.99840144432528e-15 -1.98422940262896 -0.250666467128607 -1.93716632225726 -0.497379774329708 -1.8595529717765 -0.736249105369354 -1.75261336008773 -0.963507348203428 -1.6180339887499 -1.17557050458494 -1.45793725484282 -1.36909421185738 -1.27484797949738 -1.54102648555158 -1.07165358995799 -1.68865585100403 -0.851558583130146 -1.80965410493204 -0.618033988749895 -1.90211303259031 -0.374762629171449 -1.96457450145738 -0.125581039058626 -1.99605345685654 0.125581039058627 -1.99605345685654 0.37476262917145 -1.96457450145738 0.618033988749896 -1.90211303259031 0.851558583130147 -1.80965410493204 1.07165358995799 -1.68865585100403 1.27484797949738 -1.54102648555158 1.45793725484282 -1.36909421185738 1.6180339887499 -1.17557050458494 1.75261336008773 -0.963507348203428 1.8595529717765 -0.736249105369352 1.93716632225726 -0.497379774329705 1.98422940262896 -0.250666467128608 7 1 2 7 2 3 7 3 4 7 4 5 7 5 6 7 8 9 7 9 10 7 10 11 7 11 12 7 12 13 7 13 14 7 14 15 7 15 16 7 16 17 7 17 18 7 18 19 7 19 20 7 20 21 7 21 22 7 22 23 7 23 24 7 24 25 7 25 26 7 26 27 7 27 28 7 28 29 7 29 30 7 30 31 7 31 32 7 32 33 7 33 34 7 34 35 7 35 36 7 36 37 7 37 38 7 38 39 7 39 40 7 40 41 7 41 42 7 42 43 7 43 44 7 44 45 7 45 46 7 46 47 7 47 48 7 48 49 7 49 50 7 50 1 

TShapes 14
Ve
1e-07
2 -4.89858719658941e-16 10
0 0

0101101
*
Ed
 1e-07 1 1 0
1  1 0 0 6.28318530717959
2  1 1 0 0 6.28318530717959
2  2 2 0 0 6.28318530717959
6  1 1 0
6  2 2 0
0

0101000
+14 0 -14 0 *
Ve
1e-07
2 -4.89858719658941e-16 0
0 0

0101101
*
Ed
 1e-07 1 1 0
1  2 0 0 10
3  3 4CN 1 0 0 10
7  3 4 1 0
0

0101000
-14 0 +12 0 *
Ed
 1e-07 1 1 0
1  3 0 0 6.28318530717959
2  5 1 0 0 6.28318530717959
2  6 3 0 0 6.28318530717959
6  5 1 0
6  6 3 0
0

0101000
+12 0 -12 0 *
Wi

0101100
-13 0 +11 0 +10 0 -11 0 *
Fa
0  1e-07 1 0
2  1
0101000
+9 0 *
Wi

0101100
+13 0 *
Fa
0  1e-07 2 0
2  2
0101000
+7 0 *
Wi

0101100
-10 0 *
Fa
0  1e-07 3 0
2  3
0101000
-5 0 *
Sh

0101100
+8 0 +6 0 -4 0 *
So

0100000
+3 0 *
Co

1100000
+2 1 *

+1 0 